<svg width="20" height="20" viewBox="0 0 20 20" fill="none" xmlns="http://www.w3.org/2000/svg">
<path d="M9.99982 0C4.48573 0 0 4.4859 0 9.99982C0 15.5139 4.48573 20 9.99982 20C15.5136 20 19.9996 15.5139 19.9996 9.99982C19.9996 4.4859 15.5136 0 9.99982 0ZM12.8261 6.31269C12.8261 6.36004 12.8072 6.40545 12.7738 6.43893C12.7403 6.47242 12.6949 6.49123 12.6475 6.49123L11.5108 6.49194C10.7607 6.49194 10.6236 6.78402 10.6236 7.35927V8.55261H12.5732C12.6245 8.55261 12.6734 8.57474 12.7071 8.61331C12.7409 8.65187 12.7566 8.70311 12.7504 8.75399L12.4727 10.9023C12.4672 10.9454 12.4461 10.9849 12.4135 11.0136C12.3809 11.0422 12.339 11.058 12.2956 11.058H10.6236V16.3925C10.6236 16.4398 10.6048 16.4853 10.5713 16.5187C10.5379 16.5522 10.4924 16.571 10.4451 16.571H8.22696C8.1796 16.571 8.13419 16.5522 8.10071 16.5187C8.06723 16.4853 8.04842 16.4398 8.04842 16.3925V11.058H6.37107C6.32372 11.058 6.27831 11.0392 6.24482 11.0057C6.21134 10.9722 6.19253 10.9268 6.19253 10.8795V8.73114C6.19253 8.68379 6.21134 8.63838 6.24482 8.6049C6.27831 8.57142 6.32372 8.55261 6.37107 8.55261H8.04842V7.14663C8.04842 5.2845 9.17534 4.12794 10.9898 4.12794C11.7698 4.12794 12.4592 4.18596 12.6709 4.21399C12.7138 4.21966 12.7532 4.24073 12.7818 4.27328C12.8103 4.30583 12.826 4.34764 12.8261 4.39092V6.31269Z" fill="white"/>
</svg>
