<svg width="20" height="20" viewBox="0 0 20 20" fill="none" xmlns="http://www.w3.org/2000/svg">
<g clip-path="url(#clip0_46_428)">
<path d="M4.43242 12.086L3.73625 14.6849L1.19176 14.7388C0.431328 13.3283 0 11.7146 0 9.99979C0 8.34154 0.403281 6.77779 1.11813 5.40088H1.11867L3.38398 5.81619L4.37633 8.06791C4.16863 8.67342 4.05543 9.32342 4.05543 9.99979C4.05551 10.7338 4.18848 11.4372 4.43242 12.086Z" fill="#FBBB00"/>
<path d="M19.8254 8.13184C19.9402 8.73676 20.0001 9.36148 20.0001 9.99996C20.0001 10.7159 19.9248 11.4143 19.7815 12.0879C19.2947 14.3802 18.0227 16.3818 16.2606 17.7983L16.26 17.7978L13.4068 17.6522L13.0029 15.1313C14.1722 14.4456 15.0859 13.3725 15.5672 12.0879H10.22V8.13184H15.6452H19.8254Z" fill="#518EF8"/>
<path d="M16.2599 17.798L16.2604 17.7985C14.5467 19.176 12.3698 20.0001 10 20.0001C6.19177 20.0001 2.8808 17.8716 1.19177 14.7392L4.43244 12.0864C5.27693 14.3403 7.45111 15.9447 10 15.9447C11.0956 15.9447 12.122 15.6485 13.0027 15.1315L16.2599 17.798Z" fill="#28B446"/>
<path d="M16.3829 2.30219L13.1433 4.95438C12.2318 4.38461 11.1543 4.05547 9.99992 4.05547C7.39332 4.05547 5.17847 5.73348 4.37628 8.06813L1.11859 5.40109H1.11804C2.78234 2.19231 6.13507 0 9.99992 0C12.4263 0 14.651 0.864297 16.3829 2.30219Z" fill="#F14336"/>
</g>
<defs>
<clipPath id="clip0_46_428">
<rect width="20" height="20" fill="white"/>
</clipPath>
</defs>
</svg>
